#!OML:ASF X:\für Bonn\!DataBase\2005_08_12_Daniel\c3d\Daniel.ASF
:FULLY-SPECIFIED
:DEGREES
167
root -18.5588 16.424 -18.3744 -8.61756 43.81 -719.216
lowerback 40.8905 -2.63332 -1.94902
upperback 12.0583 -3.52686 -3.45866
thorax -6.28997 -1.25908 -1.32524
lowerneck -8.03188 -3.11694 -8.70898
upperneck -4.26878 -3.36147 5.17472
head 0.290725 -1.51435 3.10386
rclavicle 1.11319e-014 -3.18055e-015
rhumerus -35.6958 2.25653 -91.6833
rradius 41.3113
rwrist 3.55779
rhand -26.8482 22.756
rfingers 7.12502
rthumb -0.27345 -7.22355
lclavicle 1.11319e-014 -3.18055e-015
lhumerus 0.893156 19.9901 92.6642
lradius 32.464
lwrist -18.9193
lhand -20.0116 -7.30904
lfingers 7.12502
lthumb 6.32866 22.5764
rfemur -35.4488 8.78831 18.3808
rtibia 39.4984
rfoot -16.2975 0.406622
rtoes -14.6089
lfemur -4.57904 -0.0272587 -24.8708
ltibia 57.7278
lfoot -37.5807 -8.13379
ltoes -2.75709
168
root -18.4768 16.4039 -18.2894 -8.7055 43.8118 -719.172
lowerback 40.879 -2.74187 -1.9485
upperback 12.0674 -3.65213 -3.38137
thorax -6.27248 -1.32202 -1.19518
lowerneck -8.09804 -3.19056 -8.68528
upperneck -4.26181 -3.4566 5.16929
head 0.310797 -1.56193 3.09316
rclavicle -1.43125e-014 1.82882e-014
rhumerus -35.8713 1.97246 -91.6303
rradius 41.0784
rwrist 3.67384
rhand -26.8087 22.8165
rfingers 7.12502
rthumb -0.235292 -7.16309
lclavicle -1.43125e-014 1.82882e-014
lhumerus 0.850775 20.0905 92.8202
lradius 32.6663
lwrist -19.1718
lhand -20.0836 -7.22562
lfingers 7.12502
lthumb 6.2591 22.6619
rfemur -35.4851 9.53222 18.1587
rtibia 38.6171
rfoot -16.9101 -0.082339
rtoes -15.6391
lfemur -3.96302 0.122292 -24.8321
ltibia 57.6808
lfoot -37.7054 -8.40906
ltoes -2.45572
169
root -18.394 16.3836 -18.2039 -8.79467 43.8209 -719.153
lowerback 40.8688 -2.85922 -1.8914
upperback 12.063 -3.7686 -3.31391
thorax -6.27446 -1.37951 -1.10764
lowerneck -8.08217 -3.2666 -8.66769
upperneck -4.30672 -3.56061 5.20495
head 0.301688 -1.61388 3.09855
rclavicle -3.57812e-014 1.90833e-014
rhumerus -36.0788 1.63679 -91.5654
rradius 40.8717
rwrist 3.80879
rhand -26.7978 22.8559
rfingers 7.12502
rthumb -0.224795 -7.12368
lclavicle -3.57812e-014 1.90833e-014
lhumerus 0.746931 20.0234 92.9122
lradius 32.8839
lwrist -19.354
lhand -20.2486 -7.0778
lfingers 7.12502
lthumb 6.09979 22.8144
rfemur -35.5144 10.3079 17.9197
rtibia 37.8151
rfoot -17.4483 -0.565353
rtoes -16.6409
lfemur -3.36187 0.255774 -24.7722
ltibia 57.6458
lfoot -37.8253 -8.66932
ltoes -2.27482
170
root -18.3109 16.363 -18.118 -8.87572 43.8434 -719.114
lowerback 40.8814 -2.98659 -1.84207
upperback 12.058 -3.90032 -3.24798
thorax -6.28358 -1.44378 -1.01139
lowerneck -8.06004 -3.34363 -8.66715
upperneck -4.35935 -3.66491 5.23527
head 0.289265 -1.66576 3.10545
rclavicle 1.19271e-014 1.03368e-014
rhumerus -36.2919 1.3047 -91.4743
rradius 40.6754
rwrist 3.98379
rhand -26.7785 22.9692
rfingers 7.12502
rthumb -0.20611 -7.01044
lclavicle 1.19271e-014 1.03368e-014
lhumerus 0.626115 19.9902 93.0185
lradius 33.1293
lwrist -19.4864
lhand -20.332 -6.93746
lfingers 7.12502
lthumb 6.01927 22.957
rfemur -35.5085 11.1031 17.634
rtibia 37.0948
rfoot -17.8696 -1.04194
rtoes -16.6373
lfemur -2.76771 0.386106 -24.7242
ltibia 57.6135
lfoot -37.9208 -8.92143
ltoes -2.07134
